FILE "Super Power League FX (1996)(Hudson)(JP)[FXHUD504].img" BINARY
  TRACK 01 AUDIO
    INDEX 01 00:00:00
  TRACK 02 MODE1/2352
    PREGAP 00:03:00
    INDEX 01 00:44:65
  TRACK 03 MODE1/2352
    INDEX 01 00:54:69
  TRACK 04 AUDIO
    PREGAP 00:02:00
    INDEX 01 03:10:12
  TRACK 05 MODE1/2352
    PREGAP 00:03:00
    INDEX 01 22:38:62
